:SAMPLES-PER-SECOND 24
:FULLY-SPECIFIED
:DEGREES
331
root  -5.47881 39.5007 46.6649 -178.114 71.1244 -173.942
RightUpLeg  3.36243 -15.6559 -12.4319
RightLeg  22.5238 11.2098 4.85866
RightFoot  -7.25782 -0.538898 13.6644
RightToes  -1.46203e-006 3.27826e-006 1.63871e-007
Spine  3.64703 2.33951 4.07074
Spine1  16.9449 4.16509 -4.939
HEad  -17.3165 44.2524 -23.848
LeftShoulder1  1.96862 -3.09638 -23.5784
LeftArm  8.43133 14.3309 -39.707
LeftForeArm  35.1108 -69.2377 -26.9325
LeftHand  0.115025 6.10047 20.1146
RightShoulder  3.58543 5.87778 32.3376
RightArm  -0.811664 -13.297 34.7006
RightForeArm  121.123 76.5071 129.565
RightHand  2.12661 -14.3022 -27.1548
LeftUpLeg  -7.4008 17.3093 16.4614
LeftLeg  39.7298 -3.4541 -2.68756
LeftFoot  2.20728 1.26817 -10.7656
LeftToes  1.24767e-006 1.47042e-008 1.32732e-009
332
root  -5.11129 40.5752 46.2936 -176.383 70.6049 -173.876
RightUpLeg  2.93128 -14.5232 -11.709
RightLeg  19.0033 9.0002 3.26795
RightFoot  1.50226 -1.73253 15.419
RightToes  -1.46203e-006 3.27826e-006 1.63871e-007
Spine  1.1956 2.03658 4.11693
Spine1  16.5713 3.6538 -3.97255
HEad  -14.3058 45.2212 -22.5229
LeftShoulder1  1.85938 -2.81419 -23.159
LeftArm  8.55898 21.0445 -39.9327
LeftForeArm  52.7923 -76.9035 -48.6268
LeftHand  -0.116293 4.56441 14.6467
RightShoulder  3.61018 5.85057 32.7151
RightArm  2.67091 -20.2723 34.6636
RightForeArm  134.702 72.5392 143.859
RightHand  0.770508 -11.1862 -15.9594
LeftUpLeg  -8.76015 15.3697 15.2425
LeftLeg  36.0516 -3.90162 -2.68429
LeftFoot  10.088 1.59695 -8.72301
LeftToes  1.24767e-006 1.47042e-008 1.32732e-009
333
root  -4.80664 41.3278 45.8627 -178.713 69.9766 -177.019
RightUpLeg  2.71663 -13.3097 -12.5168
RightLeg  17.4876 6.08572 2.17691
RightFoot  8.03101 -2.55567 15.2663
RightToes  -1.46203e-006 3.27826e-006 1.63871e-007
Spine  0.221798 1.64166 2.87279
Spine1  16.0748 3.08515 -3.36455
HEad  -11.1911 45.9154 -20.9602
LeftShoulder1  1.79551 -2.74555 -22.4216
LeftArm  8.53575 25.1882 -40.1846
LeftForeArm  86.2491 -80.0763 -78.8555
LeftHand  -0.183906 3.13728 8.97746
RightShoulder  3.46918 5.71066 31.7652
RightArm  6.27864 -25.5784 34.3567
RightForeArm  140.044 68.9348 150.923
RightHand  -0.0282343 -8.91704 -0.967153
LeftUpLeg  -7.97764 11.409 12.7638
LeftLeg  29.8714 -3.45702 -1.81402
LeftFoot  9.88873 1.34525 -7.47717
LeftToes  1.24767e-006 1.47042e-008 1.32732e-009
334
root  -4.58988 41.5727 45.557 173.582 69.3283 175.694
RightUpLeg  3.53594 -12.6297 -15.1213
RightLeg  17.9214 3.52402 1.12425
RightFoot  9.62655 -2.33335 12.9172
RightToes  -1.46203e-006 3.27826e-006 1.63871e-007
Spine  1.67668 1.6447 -0.0887107
Spine1  15.4974 3.08575 -3.72066
HEad  -8.68157 45.3453 -19.2321
LeftShoulder1  1.659 -2.6264 -20.6405
LeftArm  9.34874 25.0844 -41.0407
LeftForeArm  106.845 -80.257 -97.5904
LeftHand  -0.177399 3.22522 8.91332
RightShoulder  3.22442 5.4974 29.9139
RightArm  8.92323 -28.703 35.2265
RightForeArm  142.232 66.5037 154.311
RightHand  -0.286361 -8.20313 9.25309
LeftUpLeg  -5.76544 8.4925 9.23
LeftLeg  22.3052 -3.17323 -1.09526
LeftFoot  8.30828 1.25697 -7.5489
LeftToes  1.24767e-006 1.47042e-008 1.32732e-009
335
root  -4.51043 41.133 45.2778 167.656 68.6383 170.427
RightUpLeg  3.56916 -12.5345 -17.4353
RightLeg  21.3794 0.859478 0.157446
RightFoot  5.80902 -1.81752 12.2759
RightToes  -1.46203e-006 3.27826e-006 1.63871e-007
Spine  3.85576 1.85818 -1.50552
Spine1  14.9147 3.50415 -5.02951
HEad  -7.27268 44.1013 -18.3861
LeftShoulder1  1.51906 -2.50331 -18.7375
LeftArm  10.235 21.9144 -41.6671
LeftForeArm  107.835 -80.0823 -100.571
LeftHand  -0.104284 4.42172 10.7975
RightShoulder  2.99391 5.31587 27.9904
RightArm  10.8475 -29.4564 36.3568
RightForeArm  143.158 65.5366 155.491
RightHand  -0.29562 -7.91138 10.8827
LeftUpLeg  -4.69098 7.44391 6.63427
LeftLeg  17.5162 -4.17468 -1.24218
LeftFoot  8.71825 1.51033 -8.82866
LeftToes  1.24767e-006 1.47042e-008 1.32732e-009
336
root  -4.5232 40.0494 44.9749 166.485 67.8358 169.507
RightUpLeg  2.66148 -13.77 -18.6916
RightLeg  26.699 -0.320112 -0.392516
RightFoot  -2.23952 -1.21365 15.0468
RightToes  -1.46203e-006 3.27826e-006 1.63871e-007
Spine  5.31919 1.93014 -1.2232
Spine1  14.5837 3.64668 -5.93606
HEad  -7.64079 43.3631 -19.3035
LeftShoulder1  1.52471 -2.66949 -18.1005
LeftArm  10.3385 16.863 -41.0712
LeftForeArm  100.329 -80.1357 -94.9416
LeftHand  -0.133428 4.16947 11.4397
RightShoulder  2.82806 5.22045 26.4051
RightArm  11.4424 -27.666 36.0605
RightForeArm  141.983 65.381 155.567
RightHand  -0.222593 -7.64747 8.71562
LeftUpLeg  -6.4242 8.85976 5.69151
LeftLeg  20.4775 -6.03993 -2.17787
LeftFoot  4.2339 1.29153 -9.58023
LeftToes  1.24767e-006 1.47042e-008 1.32732e-009
337
root  -4.5596 38.7218 44.704 166.278 66.3987 170.1
RightUpLeg  2.88302 -14.4192 -19.8997
RightLeg  31.475 -0.34851 -0.467764
RightFoot  -11.069 -0.126134 16.7647
RightToes  -1.46203e-006 3.27826e-006 1.63871e-007
Spine  6.13162 1.75968 -1.6201
Spine1  16.4054 3.0791 -5.00064
HEad  -10.4526 43.2816 -22.126
LeftShoulder1  1.63395 -2.81191 -19.3683
LeftArm  9.80179 7.9321 -39.2114
LeftForeArm  69.4186 -79.1162 -66.8617
LeftHand  -0.141713 4.18635 12.551
RightShoulder  2.80845 5.16124 26.4009
RightArm  9.05494 -20.5961 33.7166
RightForeArm  134.871 68.6254 150.85
RightHand  -0.248739 -8.08462 8.33786
LeftUpLeg  -9.1526 10.4478 5.517
LeftLeg  28.8963 -6.93124 -3.78074
LeftFoot  -5.14795 0.485413 -8.15635
LeftToes  1.24767e-006 1.47042e-008 1.32732e-009
338
root  -4.50687 37.9236 44.4781 165.604 65.064 170.843
RightUpLeg  4.8087 -14.3311 -21.1301
RightLeg  33.4362 0.13947 -0.142012
RightFoot  -16.1536 0.625193 17.305
RightToes  -1.46203e-006 3.27826e-006 1.63871e-007
Spine  6.04327 1.45963 -2.39591
Spine1  19.9494 2.26409 -3.53385
HEad  -11.7578 43.8765 -24.2065
LeftShoulder1  1.75498 -2.87068 -21.1444
LeftArm  8.38252 -0.766483 -38.8404
LeftForeArm  41.5032 -72.4732 -33.489
LeftHand  0.0934036 6.32268 13.6155
RightShoulder  2.92482 5.1754 27.736
RightArm  5.30785 -10.6529 33.8912
RightForeArm  114.779 77.1262 124.288
RightHand  -0.167675 -8.70196 3.49001
LeftUpLeg  -9.93633 10.758 5.73012
LeftLeg  34.3358 -7.61778 -5.20265
LeftFoot  -10.5588 0.108007 -6.86459
LeftToes  1.24767e-006 1.47042e-008 1.32732e-009
339
root  -4.25116 38.1835 44.2762 165.487 65.5198 171.357
RightUpLeg  6.16812 -14.685 -21.7189
RightLeg  32.5825 1.77576 0.982501
RightFoot  -14.3973 0.413439 19.0266
RightToes  -1.46203e-006 3.27826e-006 1.63871e-007
Spine  5.30485 1.63854 -2.06018
Spine1  21.3662 2.38531 -3.36861
HEad  -8.58294 45.4645 -23.9008
LeftShoulder1  1.83951 -3.00047 -21.9438
LeftArm  5.6397 -0.156868 -40.5921
LeftForeArm  49.9897 -69.0464 -24.139
LeftHand  0.340817 8.51368 13.5221
RightShoulder  3.02942 5.27942 28.5525
RightArm  2.40364 -7.29424 38.9391
RightForeArm  87.566 79.9838 84.9299
RightHand  0.625745 -12.5389 -10.8169
LeftUpLeg  -7.87402 10.8724 6.18328
LeftLeg  32.4687 -7.94759 -5.05854
LeftFoot  -9.46775 0.185437 -7.86727
LeftToes  1.24767e-006 1.47042e-008 1.32732e-009
340
root  -3.83314 39.3312 44.0961 166.653 67.7607 171.87
RightUpLeg  5.48584 -14.6398 -20.9412
RightLeg  29.9407 2.71534 1.46408
RightFoot  -5.14552 -0.929637 17.0451
RightToes  -1.46203e-006 3.27826e-006 1.63871e-007
Spine  4.16034 2.33552 -0.366017
Spine1  20.3452 3.56136 -4.22984
HEad  -4.93084 47.7449 -23.2531
LeftShoulder1  1.83367 -2.86124 -22.5045
LeftArm  4.6148 8.64965 -40.6547
LeftForeArm  69.0255 -75.6654 -37.1527
LeftHand  0.330011 8.21521 14.4284
RightShoulder  3.12745 5.40709 29.173
RightArm  0.946966 -12.2769 42.9861
RightForeArm  115.612 79.0644 112.903
RightHand  1.59916 -13.5138 -22.6927
LeftUpLeg  -4.38728 11.8409 6.89549
LeftLeg  25.5481 -7.36274 -3.43814
LeftFoot  -3.4385 0.673207 -9.43627
LeftToes  1.24767e-006 1.47042e-008 1.32732e-009
341
root  -3.40015 40.6484 44.059 167.559 69.9529 171.818
RightUpLeg  4.69017 -13.8071 -19.8143
RightLeg  25.9124 3.73684 1.74552
RightFoot  4.76865 -1.65188 11.8486
RightToes  -1.46203e-006 3.27826e-006 1.63871e-007
Spine  2.99914 2.87356 0.793864
Spine1  19.2399 4.58477 -5.32191
HEad  -3.50915 50.1532 -22.8397
LeftShoulder1  1.7267 -2.4202 -22.8542
LeftArm  6.49781 17.9642 -38.2414
LeftForeArm  95.1386 -80.5066 -77.5553
LeftHand  0.0920695 6.32524 13.2855
RightShoulder  3.24915 5.50981 30.1447
RightArm  2.29553 -17.7053 42.56
RightForeArm  135.345 72.5627 143.948
RightHand  0.694528 -9.98904 -17.8612
LeftUpLeg  -1.42806 12.3332 7.81562
LeftLeg  18.1876 -6.93661 -2.82235
LeftFoot  6.34323 1.70353 -11.1036
LeftToes  1.24767e-006 1.47042e-008 1.32732e-009
342
root  -3.08709 41.4651 44.1354 169.504 70.5361 172.914
RightUpLeg  5.05722 -14.9551 -19.3387
RightLeg  21.8011 5.86618 2.35081
RightFoot  7.95683 -1.88765 11.3686
RightToes  -1.46203e-006 3.27826e-006 1.63871e-007
Spine  2.11072 2.71975 1.59717
Spine1  18.2319 4.70923 -6.02163
HEad  -2.69393 51.7973 -21.686
LeftShoulder1  1.63031 -2.24543 -22.016
LeftArm  6.8604 25.1828 -37.173
LeftForeArm  109.756 -79.839 -104.6
LeftHand  -0.044561 5.06793 8.44339
RightShoulder  3.21092 5.47351 29.8597
RightArm  5.01876 -20.1374 41.1664
RightForeArm  135.955 67.1818 152.83
RightHand  0.0652594 -8.45588 -4.39033
LeftUpLeg  -0.825567 11.2231 8.91689
LeftLeg  14.3828 -5.92955 -3.00147
LeftFoot  13.7566 2.92903 -13.4668
LeftToes  1.24767e-006 1.47042e-008 1.32732e-009
343
root  -2.94054 41.6712 44.1972 172.244 69.9281 175.221
RightUpLeg  5.66971 -17.0134 -19.4373
RightLeg  18.5145 3.59868 1.14015
RightFoot  8.63688 -2.03405 11.8496
RightToes  -1.46203e-006 3.27826e-006 1.63871e-007
Spine  2.24429 2.35186 3.15378
Spine1  17.284 4.65078 -6.09289
HEad  -3.79287 52.057 -21.5371
LeftShoulder1  1.6203 -2.44754 -20.816
LeftArm  6.01487 28.8715 -37.5079
LeftForeArm  121.698 -79.0519 -116.336
LeftHand  -0.0929016 3.64501 5.14094
RightShoulder  3.02851 5.31432 28.4011
RightArm  7.65934 -20.9497 39.4656
RightForeArm  139.466 61.7303 158.709
RightHand  -0.111143 -6.90908 5.12948
LeftUpLeg  -3.02046 12.7874 9.61992
LeftLeg  17.4775 -7.23038 -2.31679
LeftFoot  13.9712 3.06872 -13.9933
LeftToes  1.24767e-006 1.47042e-008 1.32732e-009
344
root  -2.89699 41.2264 44.3475 174.48 69.3529 176.886
RightUpLeg  5.03122 -15.6243 -19.7223
RightLeg  17.0044 -4.40194 -1.34021
RightFoot  10.6886 -1.91866 10.1304
RightToes  -1.46203e-006 3.27826e-006 1.63871e-007
Spine  2.71381 2.36084 4.75236
Spine1  16.8887 5.13429 -6.52346
HEad  -7.34164 51.2383 -22.3988
LeftShoulder1  1.60945 -2.57672 -20.0071
LeftArm  6.27936 27.3321 -37.0229
LeftForeArm  125.612 -79.081 -117.515
LeftHand  -0.139738 3.27919 7.08613
RightShoulder  2.90444 5.20611 27.3717
RightArm  8.9366 -19.6073 36.3467
RightForeArm  141.839 56.6351 162.566
RightHand  -0.195446 -7.57253 7.79159
LeftUpLeg  -7.69783 11.1195 11.184
LeftLeg  25.5215 -6.1419 -2.86797
LeftFoot  10.4152 2.25354 -12.0137
LeftToes  1.24767e-006 1.47042e-008 1.32732e-009
345
root  -2.87887 40.1206 44.7703 177.12 68.6605 177.886
RightUpLeg  3.45531 -15.515 -20.7786
RightLeg  18.2696 -4.0179 -1.55996
RightFoot  7.59153 -2.67254 16.47
RightToes  -1.46203e-006 3.27826e-006 1.63871e-007
Spine  3.00936 2.81673 4.75333
Spine1  15.5517 5.67047 -7.228
HEad  -10.9223 49.4794 -22.5282
LeftShoulder1  1.61238 -2.71174 -19.4463
LeftArm  6.77641 22.8968 -36.3086
LeftForeArm  107.592 -80.0727 -100.332
LeftHand  -0.103141 4.33919 9.79007
RightShoulder  2.82275 5.18504 26.4786
RightArm  8.48108 -17.6683 33.7972
RightForeArm  143.478 54.7962 163.746
RightHand  -0.191736 -8.03634 5.96798
LeftUpLeg  -14.0239 12.0678 14.1802
LeftLeg  30.9851 -5.51803 -3.19921
LeftFoot  7.68403 1.52746 -9.36938
LeftToes  1.24767e-006 1.47042e-008 1.32732e-009
